<mxfile host="app.diagrams.net" modified="2022-01-16T17:20:15.681Z" agent="5.0 (Windows NT 10.0; Win64; x64) AppleWebKit/537.36 (KHTML, like Gecko) Chrome/94.0.4606.85 YaBrowser/21.11.4.727 Yowser/2.5 Safari/537.36" etag="iQdr7Pu3O_N7iiYDWeFu" version="16.2.7" type="github">
  <diagram id="Mss8j_E3mnE6FPlFo9rf" name="Page-1">
    <mxGraphModel dx="1054" dy="585" grid="1" gridSize="10" guides="1" tooltips="1" connect="1" arrows="1" fold="1" page="1" pageScale="1" pageWidth="827" pageHeight="1169" math="0" shadow="0">
      <root>
        <mxCell id="0" />
        <mxCell id="1" parent="0" />
        <mxCell id="Bcy9tFASrrUyqlcC2_II-1" value="Administrator" style="ellipse;whiteSpace=wrap;html=1;aspect=fixed;" vertex="1" parent="1">
          <mxGeometry x="414" y="70" width="80" height="80" as="geometry" />
        </mxCell>
        <mxCell id="Bcy9tFASrrUyqlcC2_II-2" value="Player" style="ellipse;whiteSpace=wrap;html=1;aspect=fixed;" vertex="1" parent="1">
          <mxGeometry x="260" y="170" width="80" height="80" as="geometry" />
        </mxCell>
        <mxCell id="Bcy9tFASrrUyqlcC2_II-3" value="" style="endArrow=classic;html=1;rounded=0;entryX=0.5;entryY=0;entryDx=0;entryDy=0;exitX=0;exitY=0.5;exitDx=0;exitDy=0;" edge="1" parent="1" source="Bcy9tFASrrUyqlcC2_II-1" target="Bcy9tFASrrUyqlcC2_II-2">
          <mxGeometry width="50" height="50" relative="1" as="geometry">
            <mxPoint x="390" y="330" as="sourcePoint" />
            <mxPoint x="440" y="280" as="targetPoint" />
            <Array as="points">
              <mxPoint x="300" y="110" />
            </Array>
          </mxGeometry>
        </mxCell>
        <mxCell id="Bcy9tFASrrUyqlcC2_II-4" value="Field" style="ellipse;whiteSpace=wrap;html=1;aspect=fixed;" vertex="1" parent="1">
          <mxGeometry x="560" y="170" width="80" height="80" as="geometry" />
        </mxCell>
        <mxCell id="Bcy9tFASrrUyqlcC2_II-5" value="Cell" style="ellipse;whiteSpace=wrap;html=1;aspect=fixed;" vertex="1" parent="1">
          <mxGeometry x="560" y="300" width="80" height="80" as="geometry" />
        </mxCell>
        <mxCell id="Bcy9tFASrrUyqlcC2_II-6" value="" style="endArrow=classic;html=1;rounded=0;exitX=1;exitY=0.5;exitDx=0;exitDy=0;entryX=0.5;entryY=0;entryDx=0;entryDy=0;" edge="1" parent="1" source="Bcy9tFASrrUyqlcC2_II-1" target="Bcy9tFASrrUyqlcC2_II-4">
          <mxGeometry width="50" height="50" relative="1" as="geometry">
            <mxPoint x="390" y="330" as="sourcePoint" />
            <mxPoint x="440" y="280" as="targetPoint" />
            <Array as="points">
              <mxPoint x="600" y="110" />
            </Array>
          </mxGeometry>
        </mxCell>
        <mxCell id="Bcy9tFASrrUyqlcC2_II-7" value="" style="endArrow=classic;html=1;rounded=0;exitX=0.5;exitY=1;exitDx=0;exitDy=0;entryX=0.5;entryY=0;entryDx=0;entryDy=0;" edge="1" parent="1" source="Bcy9tFASrrUyqlcC2_II-4" target="Bcy9tFASrrUyqlcC2_II-5">
          <mxGeometry width="50" height="50" relative="1" as="geometry">
            <mxPoint x="390" y="330" as="sourcePoint" />
            <mxPoint x="440" y="280" as="targetPoint" />
          </mxGeometry>
        </mxCell>
        <mxCell id="Bcy9tFASrrUyqlcC2_II-8" value="Sign" style="ellipse;whiteSpace=wrap;html=1;aspect=fixed;" vertex="1" parent="1">
          <mxGeometry x="560" y="440" width="80" height="80" as="geometry" />
        </mxCell>
        <mxCell id="Bcy9tFASrrUyqlcC2_II-9" value="" style="endArrow=classic;html=1;rounded=0;exitX=0.5;exitY=1;exitDx=0;exitDy=0;entryX=0.5;entryY=0;entryDx=0;entryDy=0;" edge="1" parent="1" source="Bcy9tFASrrUyqlcC2_II-5" target="Bcy9tFASrrUyqlcC2_II-8">
          <mxGeometry width="50" height="50" relative="1" as="geometry">
            <mxPoint x="390" y="330" as="sourcePoint" />
            <mxPoint x="440" y="280" as="targetPoint" />
          </mxGeometry>
        </mxCell>
      </root>
    </mxGraphModel>
  </diagram>
</mxfile>
